<svg width="147" height="45" viewBox="0 0 147 45" fill="none" xmlns="http://www.w3.org/2000/svg">
<rect y="3" width="48.2667" height="39" rx="6.26538" fill="#09C269"/>
<path d="M20.2944 10.0774C17.7153 8.84605 14.1105 8.24287 9.28426 8.22145C8.8291 8.21527 8.38287 8.34799 8.00508 8.60192C7.69498 8.81153 7.44114 9.09411 7.26588 9.42484C7.09063 9.75556 6.99932 10.1243 7 10.4986V30.9212C7 32.3018 7.98223 33.3433 9.28426 33.3433C14.3574 33.3433 19.4463 33.8172 22.4944 36.6983C22.5361 36.7378 22.5885 36.7643 22.6451 36.7744C22.7017 36.7844 22.76 36.7776 22.8128 36.7548C22.8656 36.732 22.9105 36.6942 22.942 36.646C22.9734 36.5979 22.9901 36.5416 22.9898 36.4841V12.4202C22.9899 12.2578 22.9552 12.0974 22.8879 11.9496C22.8207 11.8018 22.7225 11.6702 22.6 11.5636C21.9018 10.9667 21.1263 10.4668 20.2944 10.0774ZM40.2588 8.59978C39.8808 8.34648 39.4345 8.2145 38.9796 8.22145C34.1534 8.24287 30.5485 8.8432 27.9695 10.0774C27.1376 10.4661 26.3618 10.965 25.6631 11.5607C25.5409 11.6675 25.4429 11.7992 25.3758 11.9469C25.3087 12.0947 25.274 12.2551 25.274 12.4173V36.4827C25.274 36.5379 25.2903 36.592 25.3208 36.638C25.3514 36.684 25.3949 36.72 25.4458 36.7414C25.4967 36.7629 25.5528 36.7688 25.6071 36.7584C25.6614 36.7481 25.7114 36.7219 25.7509 36.6833C27.5833 34.863 30.7991 33.3411 38.9824 33.3418C39.5882 33.3418 40.1693 33.1012 40.5976 32.6728C41.026 32.2444 41.2667 31.6634 41.2667 31.0576V10.4993C41.2675 10.1243 41.176 9.75479 41.0002 9.42351C40.8244 9.09223 40.5698 8.80933 40.2588 8.59978Z" fill="white"/>
<path d="M64.1366 33L59.5166 24.84H57.5366V33H53.3366V12.06H61.1966C62.8166 12.06 64.1966 12.35 65.3366 12.93C66.4766 13.49 67.3266 14.26 67.8866 15.24C68.4666 16.2 68.7566 17.28 68.7566 18.48C68.7566 19.86 68.3566 21.11 67.5566 22.23C66.7566 23.33 65.5666 24.09 63.9866 24.51L68.9966 33H64.1366ZM57.5366 21.69H61.0466C62.1866 21.69 63.0366 21.42 63.5966 20.88C64.1566 20.32 64.4366 19.55 64.4366 18.57C64.4366 17.61 64.1566 16.87 63.5966 16.35C63.0366 15.81 62.1866 15.54 61.0466 15.54H57.5366V21.69ZM88.0054 24.33C88.0054 24.93 87.9654 25.47 87.8854 25.95H75.7354C75.8354 27.15 76.2554 28.09 76.9954 28.77C77.7354 29.45 78.6454 29.79 79.7254 29.79C81.2854 29.79 82.3954 29.12 83.0554 27.78H87.5854C87.1054 29.38 86.1854 30.7 84.8254 31.74C83.4654 32.76 81.7954 33.27 79.8154 33.27C78.2154 33.27 76.7754 32.92 75.4954 32.22C74.2354 31.5 73.2454 30.49 72.5254 29.19C71.8254 27.89 71.4754 26.39 71.4754 24.69C71.4754 22.97 71.8254 21.46 72.5254 20.16C73.2254 18.86 74.2054 17.86 75.4654 17.16C76.7254 16.46 78.1754 16.11 79.8154 16.11C81.3954 16.11 82.8054 16.45 84.0454 17.13C85.3054 17.81 86.2754 18.78 86.9554 20.04C87.6554 21.28 88.0054 22.71 88.0054 24.33ZM83.6554 23.13C83.6354 22.05 83.2454 21.19 82.4854 20.55C81.7254 19.89 80.7954 19.56 79.6954 19.56C78.6554 19.56 77.7754 19.88 77.0554 20.52C76.3554 21.14 75.9254 22.01 75.7654 23.13H83.6554ZM89.991 24.63C89.991 22.95 90.321 21.46 90.981 20.16C91.661 18.86 92.571 17.86 93.711 17.16C94.871 16.46 96.161 16.11 97.581 16.11C98.821 16.11 99.901 16.36 100.821 16.86C101.761 17.36 102.511 17.99 103.071 18.75V16.38H107.301V33H103.071V30.57C102.531 31.35 101.781 32 100.821 32.52C99.881 33.02 98.791 33.27 97.551 33.27C96.151 33.27 94.871 32.91 93.711 32.19C92.571 31.47 91.661 30.46 90.981 29.16C90.321 27.84 89.991 26.33 89.991 24.63ZM103.071 24.69C103.071 23.67 102.871 22.8 102.471 22.08C102.071 21.34 101.531 20.78 100.851 20.4C100.171 20 99.441 19.8 98.661 19.8C97.881 19.8 97.161 19.99 96.501 20.37C95.841 20.75 95.301 21.31 94.881 22.05C94.481 22.77 94.281 23.63 94.281 24.63C94.281 25.63 94.481 26.51 94.881 27.27C95.301 28.01 95.841 28.58 96.501 28.98C97.181 29.38 97.901 29.58 98.661 29.58C99.441 29.58 100.171 29.39 100.851 29.01C101.531 28.61 102.071 28.05 102.471 27.33C102.871 26.59 103.071 25.71 103.071 24.69ZM110.323 24.63C110.323 22.95 110.653 21.46 111.313 20.16C111.993 18.86 112.913 17.86 114.073 17.16C115.233 16.46 116.523 16.11 117.943 16.11C119.023 16.11 120.053 16.35 121.033 16.83C122.013 17.29 122.793 17.91 123.373 18.69V10.8H127.633V33H123.373V30.54C122.853 31.36 122.123 32.02 121.183 32.52C120.243 33.02 119.153 33.27 117.913 33.27C116.513 33.27 115.233 32.91 114.073 32.19C112.913 31.47 111.993 30.46 111.313 29.16C110.653 27.84 110.323 26.33 110.323 24.63ZM123.403 24.69C123.403 23.67 123.203 22.8 122.803 22.08C122.403 21.34 121.863 20.78 121.183 20.4C120.503 20 119.773 19.8 118.993 19.8C118.213 19.8 117.493 19.99 116.833 20.37C116.173 20.75 115.633 21.31 115.213 22.05C114.813 22.77 114.613 23.63 114.613 24.63C114.613 25.63 114.813 26.51 115.213 27.27C115.633 28.01 116.173 28.58 116.833 28.98C117.513 29.38 118.233 29.58 118.993 29.58C119.773 29.58 120.503 29.39 121.183 29.01C121.863 28.61 122.403 28.05 122.803 27.33C123.203 26.59 123.403 25.71 123.403 24.69ZM138.095 33.27C136.735 33.27 135.515 33.03 134.435 32.55C133.355 32.05 132.495 31.38 131.855 30.54C131.235 29.7 130.895 28.77 130.835 27.75H135.065C135.145 28.39 135.455 28.92 135.995 29.34C136.555 29.76 137.245 29.97 138.065 29.97C138.865 29.97 139.485 29.81 139.925 29.49C140.385 29.17 140.615 28.76 140.615 28.26C140.615 27.72 140.335 27.32 139.775 27.06C139.235 26.78 138.365 26.48 137.165 26.16C135.925 25.86 134.905 25.55 134.105 25.23C133.325 24.91 132.645 24.42 132.065 23.76C131.505 23.1 131.225 22.21 131.225 21.09C131.225 20.17 131.485 19.33 132.005 18.57C132.545 17.81 133.305 17.21 134.285 16.77C135.285 16.33 136.455 16.11 137.795 16.11C139.775 16.11 141.355 16.61 142.535 17.61C143.715 18.59 144.365 19.92 144.485 21.6H140.465C140.405 20.94 140.125 20.42 139.625 20.04C139.145 19.64 138.495 19.44 137.675 19.44C136.915 19.44 136.325 19.58 135.905 19.86C135.505 20.14 135.305 20.53 135.305 21.03C135.305 21.59 135.585 22.02 136.145 22.32C136.705 22.6 137.575 22.89 138.755 23.19C139.955 23.49 140.945 23.8 141.725 24.12C142.505 24.44 143.175 24.94 143.735 25.62C144.315 26.28 144.615 27.16 144.635 28.26C144.635 29.22 144.365 30.08 143.825 30.84C143.305 31.6 142.545 32.2 141.545 32.64C140.565 33.06 139.415 33.27 138.095 33.27Z" fill="#09C269"/>
</svg>
